<svg width="99" height="94" viewBox="0 0 99 94" fill="none" xmlns="http://www.w3.org/2000/svg">
<path d="M98.5 47C98.5 72.6571 76.5867 93.5 49.5 93.5C22.4133 93.5 0.5 72.6571 0.5 47C0.5 21.3429 22.4133 0.5 49.5 0.5C76.5867 0.5 98.5 21.3429 98.5 47Z" stroke="#007ECB" stroke-opacity="0.4"/>
<path d="M22.0266 39.0326L48.345 25.515L74.6635 39.0326L48.345 52.5502L22.0266 39.0326Z" stroke="#007ECB" stroke-width="1.5" stroke-linecap="round" stroke-linejoin="round"/>
<path d="M61.5043 69.445V45.7893L48.3451 39.0305" stroke="#007ECB" stroke-width="1.5" stroke-linecap="round" stroke-linejoin="round"/>
<path d="M68.5221 42.1873V53.7027C68.5228 54.0672 68.4005 54.4221 68.1735 54.7138C66.696 56.6071 60.4627 63.5338 48.3446 63.5338C36.2266 63.5338 29.9933 56.6071 28.5158 54.7138C28.2888 54.4221 28.1665 54.0672 28.1672 53.7027V42.1873" stroke="#007ECB" stroke-width="1.5" stroke-linecap="round" stroke-linejoin="round"/>
</svg>
