<svg width="99" height="94" viewBox="0 0 99 94" fill="none" xmlns="http://www.w3.org/2000/svg">
<g clip-path="url(#clip0_201_2)">
<path d="M71.4512 63.7358C71.1906 63.7356 70.9769 63.6978 70.7956 63.6369C70.4799 63.5293 70.2517 63.3526 70.0587 63.1166C69.9154 62.9401 69.7976 62.7293 69.7052 62.504C69.5658 62.1663 69.4853 61.7983 69.443 61.4905C69.4002 61.1826 69.3947 60.9353 69.3947 60.8368C69.3947 60.8193 69.3948 60.8067 69.3951 60.799L69.3952 60.7916V60.791L69.051 60.7803L69.3952 60.7922V60.791L69.051 60.7803L69.3952 60.7922L69.3957 60.7813L69.3858 29.9996H23L23.0094 60.773V60.7751C23.0097 60.8031 23.0128 61.0638 23.0861 61.4499C23.1414 61.7393 23.236 62.0999 23.4032 62.4848C23.5285 62.7732 23.695 63.0756 23.9175 63.3685C24.2504 63.8075 24.7135 64.2238 25.3293 64.5215C25.9446 64.8203 26.7053 64.998 27.6216 64.9975C31.5962 64.9975 60.1677 64.9975 69.6918 64.9975C69.903 64.9975 70.1144 64.9994 70.3256 64.9994C70.9033 64.9987 71.4787 64.9881 72.0446 64.8676C72.4677 64.7771 72.8889 64.6193 73.2695 64.3489C73.5547 64.1468 73.8125 63.8834 74.029 63.5605C74.3547 63.075 74.5903 62.4629 74.7477 61.692C74.9048 60.9201 74.9849 59.9845 74.9851 58.8307C74.9851 58.2913 74.9889 52.2548 74.9925 46.3541C74.9944 43.4034 74.9962 40.4868 74.9975 38.3077C74.9982 37.2182 74.9989 36.313 74.9992 35.6802C74.9996 35.0474 74.9999 34.6881 74.9999 34.6872L75.0002 34.0764L71.8113 34.0736L71.8102 35.2953L74.3877 35.2974L74.3882 34.6866L73.7764 34.6862C73.7764 34.6863 73.7616 57.7496 73.7616 58.8306C73.7622 60.1303 73.6519 61.0978 73.4685 61.795C73.3314 62.3186 73.1557 62.687 72.9657 62.9474C72.8227 63.1432 72.6724 63.2815 72.5055 63.3906C72.2563 63.5528 71.9582 63.6519 71.5907 63.7093C71.2247 63.7666 70.7965 63.7781 70.3258 63.7776C70.122 63.7776 69.9104 63.7757 69.692 63.7757C60.1679 63.7757 31.5965 63.7757 27.6218 63.7757C26.7198 63.7747 26.0945 63.5743 25.6365 63.2991C25.2929 63.0912 25.0387 62.8361 24.8423 62.5614C24.5482 62.1507 24.3906 61.691 24.3123 61.3355C24.2728 61.1584 24.253 61.0081 24.2431 60.9062C24.2381 60.8552 24.2357 60.8163 24.2346 60.7922L24.2336 60.7672L24.2335 60.7636L23.9596 60.7684L24.2336 60.7665L24.2335 60.7636L23.9596 60.7684L24.2336 60.7665V60.7705L24.2245 31.2209H68.163L68.1724 60.7707L68.7842 60.7706L68.1728 60.7493C68.1726 60.7558 68.1716 60.7862 68.1716 60.8365C68.1717 60.9799 68.1789 61.2868 68.234 61.6758C68.2753 61.9675 68.3433 62.3057 68.4592 62.6574C68.6334 63.1829 68.9152 63.7483 69.4041 64.2013C69.6478 64.4264 69.9439 64.6195 70.2886 64.7521C70.6331 64.8851 71.0235 64.9572 71.4516 64.9568V63.7353L71.4512 63.7358Z" fill="#007ECB"/>
<path d="M68.1774 59.5549C68.176 59.5696 68.1699 59.6447 68.1699 59.7624C68.17 59.9089 68.1792 60.1213 68.2222 60.3682C68.2546 60.5535 68.3061 60.7582 68.3921 60.9692C68.4565 61.1272 68.5408 61.2888 68.6523 61.4442C68.8189 61.6772 69.0526 61.8965 69.3529 62.049C69.6528 62.2024 70.0114 62.2852 70.4098 62.2846L70.448 62.2842H70.4484C70.7369 62.2807 71.033 62.23 71.3123 62.0989C71.5212 62.0014 71.7161 61.858 71.8779 61.6767C72.1218 61.4038 72.2889 61.0574 72.3956 60.6518C72.502 60.2447 72.552 59.7724 72.5523 59.2104C72.5523 58.9936 72.5592 52.2598 72.566 45.5818C72.5694 42.2427 72.5727 38.9171 72.5752 36.4263C72.5766 35.181 72.5776 34.1444 72.5784 33.4189C72.5788 33.0564 72.579 32.7714 72.5794 32.5773C72.5795 32.3831 72.5795 32.2799 72.5797 32.2798L72.5803 31.6682H68.8525V32.8898H71.9679V32.2791L71.3561 32.2785C71.3561 32.2789 71.3289 58.7727 71.3289 59.2104C71.3293 59.6438 71.293 59.9881 71.2349 60.2481C71.1914 60.4433 71.1359 60.5901 71.0791 60.6965C70.9918 60.8565 70.9131 60.926 70.8234 60.9774C70.7331 61.0271 70.6117 61.06 70.4331 61.0628H70.4336L70.4102 61.0629C70.1307 61.0613 69.9691 61.001 69.8504 60.9272C69.7618 60.8703 69.6926 60.7999 69.6314 60.7098C69.5404 60.5763 69.4752 60.3957 69.4392 60.2172C69.4023 60.0392 69.3938 59.8671 69.3939 59.7624C69.3939 59.7249 69.3948 59.6961 69.3958 59.6784L69.3968 59.6606L69.3969 59.6587L69.0756 59.6336L69.3968 59.6617L69.3969 59.6587L69.0756 59.6336L69.3968 59.6617L68.1778 59.5549H68.1774Z" fill="#007ECB"/>
<path d="M29.2949 45.9695C28.5517 45.9728 27.9745 46.5792 28.0049 47.3241L28.0255 53.5472C28.0556 54.2898 28.6799 54.8894 29.4206 54.8894H29.4266L38.7751 54.8727C39.5173 54.8691 40.0958 54.2629 40.0648 53.518L40.0499 47.3177C40.0191 46.5747 39.3944 45.9751 38.6535 45.9754H38.6477L29.2948 45.9696L29.2949 45.9695ZM29.2975 46.991L38.6536 46.9966C38.8404 46.9966 39.0116 47.1585 39.0269 47.3464L39.0416 53.5204L39.0417 53.5403L39.0424 53.5601C39.0468 53.6643 39.0045 53.7313 38.9682 53.7694C38.9327 53.8063 38.8697 53.8505 38.7732 53.851L29.4205 53.8676C29.2338 53.8676 29.0631 53.7058 29.0485 53.5184L29.0279 47.3207V47.3015L29.0272 47.2823C29.0228 47.1774 29.0652 47.11 29.1017 47.0719C29.1366 47.0354 29.1988 46.9918 29.2974 46.9909L29.2975 46.991Z" fill="#007ECB"/>
<path d="M64.4675 46.5068C64.474 46.7508 64.2813 46.9488 64.0365 46.9488H43.1143C42.8696 46.9488 42.6664 46.7509 42.66 46.5068C42.6531 46.2628 42.8457 46.0647 43.0906 46.0647H64.0128C64.2572 46.0647 64.4602 46.2628 64.4675 46.5068Z" fill="#007ECB"/>
<path d="M64.4395 49.1501C64.4459 49.3945 64.2537 49.5922 64.0094 49.5922H43.0866C42.8423 49.5922 42.6383 49.3945 42.6324 49.1501C42.6259 48.9062 42.8186 48.7085 43.0625 48.7085H63.9851C64.2296 48.7085 64.4332 48.9062 64.4395 49.1501Z" fill="#007ECB"/>
<path d="M64.447 51.7938C64.4535 52.0377 64.2607 52.2353 64.0165 52.2353H43.0939C42.8494 52.2353 42.646 52.0377 42.6393 51.7938C42.6328 51.5496 42.8257 51.3517 43.0701 51.3517H63.9927C64.237 51.3517 64.4408 51.5495 64.447 51.7938Z" fill="#007ECB"/>
<path d="M64.4395 54.4369C64.4465 54.6813 64.2533 54.8791 64.0094 54.8791H43.0866C42.8423 54.8791 42.6388 54.6813 42.6324 54.4369C42.6261 54.1934 42.8194 53.9954 43.0633 53.9954H63.9857C64.2295 53.9954 64.4336 54.1933 64.4395 54.4369Z" fill="#007ECB"/>
<path d="M64.4468 57.0806C64.4537 57.3245 64.2601 57.5222 64.0158 57.5222H28.1648C27.92 57.5222 27.7171 57.3245 27.7107 57.0806C27.7042 56.8365 27.8973 56.6389 28.141 56.6389H63.9923C64.2367 56.6389 64.44 56.8365 64.4469 57.0806H64.4468Z" fill="#007ECB"/>
<path d="M64.4475 59.7241C64.4539 59.968 64.2608 60.1662 64.0165 60.1662H28.1654C27.9211 60.1662 27.7177 59.968 27.7108 59.7241C27.7045 59.4802 27.8971 59.2823 28.1417 59.2823H63.9925C64.2372 59.2823 64.4411 59.4802 64.4474 59.7241H64.4475Z" fill="#007ECB"/>
<path d="M28.3207 42.9926V34.2879H30.0335L33.602 40.1011V34.2879H35.2374V42.9926H33.4711L29.9566 37.3162V42.9926H28.3207Z" fill="#007ECB"/>
<path d="M37.501 42.9926V34.2879H43.9657V35.7604H39.2616V37.6903H43.6385V39.1569H39.2616V41.5262H44.132V42.9926H37.501Z" fill="#007ECB"/>
<path d="M47.2639 42.9926L45.1826 34.2879H46.9845L48.2988 40.2673L49.8928 34.2879H51.9861L53.5144 40.3682L54.8524 34.2879H56.6249L54.5079 42.9926H52.64L50.9035 36.4848L49.173 42.9926H47.2639Z" fill="#007ECB"/>
<path d="M57.4785 40.1604L59.1912 39.9943C59.2942 40.5682 59.5036 40.9898 59.8192 41.2591C60.1342 41.5281 60.5594 41.6627 61.0946 41.6627C61.6614 41.6627 62.0885 41.5432 62.3761 41.3034C62.6638 41.0643 62.8072 40.7837 62.8072 40.4633C62.8072 40.2575 62.7469 40.0823 62.6259 39.9377C62.5048 39.7931 62.2936 39.6677 61.9924 39.5608C61.7861 39.4895 61.3167 39.3631 60.5828 39.1807C59.6395 38.9471 58.9771 38.6603 58.5967 38.3199C58.0616 37.8409 57.7939 37.2567 57.7939 36.5681C57.7939 36.125 57.9196 35.7102 58.1714 35.3242C58.4229 34.9381 58.7858 34.6444 59.2596 34.4425C59.7335 34.2405 60.3053 34.1396 60.9753 34.1396C62.0698 34.1396 62.8933 34.3791 63.4464 34.8582C63.9995 35.3371 64.2901 35.9764 64.3179 36.7758L62.5572 36.8533C62.4818 36.4059 62.3202 36.0841 62.0727 35.8884C61.825 35.6922 61.4531 35.5943 60.9575 35.5943C60.4462 35.5943 60.0458 35.6994 59.7564 35.909C59.5698 36.0438 59.4766 36.2238 59.4766 36.4494C59.4766 36.6554 59.5641 36.8314 59.7386 36.9779C59.9606 37.164 60.4997 37.358 61.3561 37.5598C62.2126 37.7619 62.846 37.9707 63.2564 38.1863C63.6668 38.4021 63.9879 38.6969 64.2198 39.0711C64.4519 39.4453 64.5676 39.9072 64.5676 40.4575C64.5676 40.9563 64.429 41.4234 64.1513 41.8587C63.8738 42.2944 63.4811 42.618 62.9736 42.8298C62.466 43.0416 61.8339 43.1475 61.0768 43.1475C59.9745 43.1475 59.1276 42.8931 58.5371 42.3843C57.9463 41.8756 57.5934 41.1345 57.4785 40.1606V40.1604Z" fill="#007ECB"/>
</g>
<path d="M98.5 47C98.5 72.6571 76.5867 93.5 49.5 93.5C22.4133 93.5 0.5 72.6571 0.5 47C0.5 21.3429 22.4133 0.5 49.5 0.5C76.5867 0.5 98.5 21.3429 98.5 47Z" stroke="#007ECB" stroke-opacity="0.4"/>
<defs>
<clipPath id="clip0_201_2">
<rect width="52" height="35" fill="white" transform="translate(23 30)"/>
</clipPath>
</defs>
</svg>
