<svg width="51" height="47" viewBox="0 0 51 47" fill="none" xmlns="http://www.w3.org/2000/svg">
<path d="M43.2403 23.5789C43.7911 23.1025 44.3208 22.6228 44.8292 22.1398C45.702 22.4932 46.6783 22.5644 47.6002 22.3417C48.5222 22.1191 49.336 21.6158 49.9103 20.913C50.4846 20.2102 50.7858 19.349 50.7652 18.4685C50.7447 17.588 50.4036 16.7396 49.797 16.0603C53.2925 9.67736 49.045 4.51811 33.9085 9.20745C29.7351 -3.02007 21.1977 -3.0886 16.9607 9.11934C-0.442514 3.80345 -5.7281 11.6941 7.93604 23.5887C7.38523 24.0684 6.8768 24.5677 6.36837 25.0181C2.0255 22.6881 -2.22203 28.0529 1.31582 31.2052C-0.325998 34.2695 0.129473 36.2274 0.83916 37.2847C3.47666 41.3573 12.173 39.5266 17.056 38.0386C21.293 50.0213 29.6609 49.9822 33.8449 37.9504C51.6295 43.4915 56.9786 35.5324 43.2403 23.5789ZM46.6193 20.5637C46.2003 20.5637 45.7907 20.4488 45.4423 20.2337C45.094 20.0186 44.8224 19.7128 44.6621 19.355C44.5017 18.9972 44.4598 18.6035 44.5415 18.2237C44.6233 17.8439 44.825 17.495 45.1213 17.2212C45.4176 16.9474 45.7951 16.7609 46.206 16.6854C46.617 16.6098 47.0429 16.6486 47.43 16.7968C47.8171 16.945 48.148 17.1959 48.3807 17.5179C48.6135 17.8399 48.7378 18.2185 48.7378 18.6057C48.7378 19.125 48.5146 19.623 48.1173 19.9902C47.72 20.3574 47.1812 20.5637 46.6193 20.5637ZM48.0493 14.9345C47.202 14.6607 46.2825 14.6426 45.4234 14.8829C44.5643 15.1232 43.81 15.6095 43.2692 16.2715C42.7284 16.9336 42.4291 17.7374 42.4143 18.5668C42.3996 19.3963 42.6703 20.2086 43.1874 20.8867C42.7107 21.3469 42.2023 21.7972 41.6727 22.2573C32.4997 14.866 37.4357 21.7482 34.4805 11.1067C42.4459 8.61027 51.7036 7.93477 48.0493 14.9345ZM25.5935 32.5562C22.6642 31.168 19.8338 29.6082 17.1196 27.8865C16.8707 25.0292 16.8707 22.1581 17.1196 19.3008C19.8352 17.584 22.6654 16.0275 25.5935 14.6408C28.3945 15.9774 31.1042 17.4715 33.7072 19.1148C33.9721 22.1022 33.9721 25.1046 33.7072 28.0921C31.1013 29.7252 28.3918 31.2127 25.5935 32.5464V32.5562ZM33.4 30.5983C33.1731 32.2072 32.8442 33.8024 32.415 35.3757C30.9532 34.8569 29.4491 34.2597 27.9238 33.594C30.1164 32.5171 31.557 31.7241 33.4 30.6178V30.5983ZM23.2526 33.594C21.6319 34.2988 20.0749 34.9352 18.4754 35.4736C18.0116 33.8013 17.6579 32.1045 17.4162 30.3927C19.5558 31.6849 21.1129 32.5464 23.2526 33.6135V33.594ZM14.927 26.4376C13.5712 25.5075 12.2895 24.5579 11.0926 23.6083C12.2895 22.6293 13.5606 21.7091 14.9164 20.7888C14.8422 22.6979 14.8422 24.4796 14.927 26.4376ZM17.4056 16.8044C17.6362 15.078 17.99 13.3675 18.4648 11.6843C20.0325 12.2325 21.6425 12.8689 23.2738 13.5835C20.9434 14.6898 19.3334 15.6687 17.4056 16.7848V16.8044ZM27.9979 13.5835C29.5374 12.9309 31.0415 12.3369 32.5103 11.8018C32.9367 13.3784 33.2621 14.9769 33.4848 16.589C31.4299 15.3751 29.8092 14.5038 27.945 13.5639L27.9979 13.5835ZM35.9422 20.5637C37.4145 21.5427 38.8021 22.5706 40.0732 23.5985C38.7916 24.6265 37.404 25.6544 35.9316 26.653C36.0569 24.6249 36.0604 22.5921 35.9422 20.5637V20.5637ZM31.8853 9.88295C29.8516 10.5976 27.7331 11.4493 25.5935 12.4381C23.4505 11.455 21.2551 10.5728 19.0156 9.79484C22.6382 -0.797779 28.411 -0.406185 31.8853 9.88295ZM16.4205 10.999C13.3487 22.0517 18.3165 15.1597 9.54607 22.2671C-2.68809 11.7528 1.24167 6.34881 16.4205 10.999ZM4.2499 26.4376C4.66889 26.4376 5.07848 26.5524 5.42686 26.7676C5.77524 26.9827 6.04677 27.2885 6.20711 27.6463C6.36745 28.004 6.4094 28.3977 6.32766 28.7775C6.24592 29.1573 6.04416 29.5062 5.74788 29.78C5.45161 30.0539 5.07413 30.2404 4.66319 30.3159C4.25225 30.3914 3.82629 30.3527 3.43919 30.2045C3.05209 30.0563 2.72123 29.8053 2.48845 29.4833C2.25567 29.1614 2.13143 28.7828 2.13143 28.3956C2.13143 27.8763 2.35462 27.3782 2.75191 27.0111C3.1492 26.6439 3.68804 26.4376 4.2499 26.4376V26.4376ZM3.19066 32.1646C3.9923 32.3424 4.83264 32.3002 5.60871 32.0432C6.38477 31.7861 7.06284 31.3254 7.55981 30.7175C8.05678 30.1095 8.35107 29.3808 8.40661 28.6206C8.46215 27.8604 8.27652 27.1017 7.87248 26.4376C8.39151 25.9383 8.93172 25.4586 9.5037 24.9495C18.3589 32.0863 13.3381 25.1649 16.4629 36.1883C8.48684 38.5966 -0.527253 39.1644 3.19066 32.1646ZM19.0792 37.3826C21.3015 36.6051 23.4794 35.7228 25.6041 34.7394C27.7225 35.7184 29.841 36.5701 31.843 37.2847C28.3475 47.4172 22.6488 47.6816 19.0792 37.3826ZM34.4381 36.061C37.4357 25.3999 32.4679 32.3115 41.6727 24.9006C53.748 35.3463 50.2843 41.0342 34.4275 36.061H34.4381Z" fill="#00C45A"/>
</svg>
