<svg width="50" height="47" viewBox="0 0 50 47" fill="none" xmlns="http://www.w3.org/2000/svg">
<path d="M46.6952 39.9057H43.3599V34.1329C43.4324 29.2032 39.5528 24.8994 35.0052 24.1247C35.0322 24.0955 35.0186 22.4691 35.0214 22.3792C36.4748 21.7746 37.7598 20.7871 38.7559 19.5095H40.8583C41.6 19.5074 42.3197 19.2422 42.9037 18.756C43.4876 18.2698 43.9024 17.5903 44.0823 16.8252C48.6426 16.8852 48.639 9.71687 44.0823 9.77864C43.9229 9.1064 43.5809 8.49892 43.0991 8.0319C42.1478 5.64977 40.5583 3.61801 38.5289 2.18978C36.4994 0.761557 34.1196 0 31.6861 0C29.2525 0 26.8727 0.761557 24.8432 2.18978C22.8138 3.61801 21.2243 5.64977 20.273 8.0319C19.7912 8.49892 19.4493 9.1064 19.2898 9.77864C14.7294 9.71877 14.7332 16.8871 19.2898 16.8252C19.47 17.5906 19.8852 18.2703 20.4696 18.7565C21.054 19.2428 21.7742 19.5077 22.5162 19.5095L24.6102 19.5022C25.6071 20.7834 26.8944 21.7734 28.3507 22.3791C28.3535 22.4698 28.3401 24.0963 28.3665 24.124C26.8421 24.4058 25.395 25.0422 24.1288 25.9878C23.8188 25.6243 23.4409 25.3335 23.0192 25.1342C22.5975 24.9349 22.1414 24.8313 21.6799 24.8302H17.2672C17.5187 24.0555 18.0401 23.4129 18.724 23.035C18.8662 22.9577 18.9846 22.8385 19.065 22.6917C19.1454 22.5449 19.1845 22.3767 19.1776 22.207C19.1707 22.0373 19.1182 21.8732 19.0263 21.7343C18.9343 21.5954 18.8068 21.4875 18.6589 21.4234C17.9606 21.112 17.2106 20.9534 16.4534 20.957C15.6963 20.9605 14.9475 21.1262 14.2519 21.4442C13.5563 21.7621 12.928 22.2258 12.4044 22.8075C11.8809 23.3893 11.4729 24.0772 11.2048 24.8302H6.67075C5.78642 24.8312 4.93857 25.2052 4.31326 25.8702C3.68794 26.5352 3.33626 27.4369 3.33537 28.3774V33.6981C3.33626 34.6386 3.68794 35.5403 4.31326 36.2053C4.93857 36.8703 5.78642 37.2444 6.67075 37.2453H20.0122V39.9057H3.33537C2.45078 39.9057 1.60241 40.2794 0.976908 40.9446C0.351405 41.6098 0 42.5121 0 43.4528C0 44.3936 0.351405 45.2958 0.976908 45.9611C1.60241 46.6263 2.45078 47 3.33537 47H46.6952C47.5745 46.9914 48.415 46.6139 49.0339 45.9496C49.6528 45.2853 50 44.388 50 43.4528C50 42.5177 49.6528 41.6204 49.0339 40.9561C48.415 40.2918 47.5745 39.9143 46.6952 39.9057ZM45.8614 13.3019C45.8608 13.7721 45.6849 14.2229 45.3723 14.5554C45.0597 14.8879 44.6358 15.0749 44.1937 15.0755V11.5284C44.6358 11.529 45.0597 11.716 45.3723 12.0485C45.6849 12.381 45.8608 12.8317 45.8614 13.3019ZM17.5107 13.3019C17.5113 12.8317 17.6872 12.381 17.9998 12.0485C18.3124 11.716 18.7363 11.529 19.1784 11.5284V15.0755C18.7363 15.0749 18.3124 14.8879 17.9998 14.5554C17.6872 14.2229 17.5113 13.7721 17.5107 13.3019ZM42.526 15.9623C42.5254 16.4325 42.3496 16.8833 42.0369 17.2158C41.7243 17.5482 41.3005 17.7353 40.8583 17.7359H39.8458C40.5043 16.3628 40.8476 14.8433 40.8476 13.3019C40.8476 11.7606 40.5043 10.2411 39.8458 8.86799H40.8583C41.3005 8.8686 41.7243 9.05565 42.0369 9.38813C42.3496 9.72061 42.5254 10.1714 42.526 10.6416V15.9623ZM31.6861 1.77366C33.504 1.78106 35.2914 2.2717 36.8856 3.20096C38.4798 4.13022 39.8303 5.46862 40.8142 7.09441H38.7559C37.89 5.99431 36.8078 5.10968 35.5854 4.50291C34.363 3.89614 33.0304 3.58202 31.6814 3.58271C30.3325 3.58341 29.0001 3.89889 27.7783 4.50691C26.5565 5.11493 25.475 6.00068 24.6102 7.10166L22.5579 7.09457C23.5417 5.46874 24.8922 4.13031 26.4864 3.20102C28.0807 2.27173 29.8681 1.78107 31.6861 1.77366ZM22.5138 17.7359C22.0717 17.7353 21.6478 17.5482 21.3352 17.2158C21.0225 16.8833 20.8467 16.4325 20.8461 15.9623V10.6416C20.8465 10.1718 21.022 9.72133 21.3342 9.38889C21.6463 9.05646 22.0696 8.86915 22.5113 8.86799L23.5247 8.87154C22.8673 10.2437 22.5245 11.7619 22.5245 13.302C22.5245 14.842 22.8673 16.3602 23.5247 17.7324L22.5138 17.7359ZM24.1815 13.3019C24.1836 11.1859 24.975 9.15724 26.3819 7.66099C27.7888 6.16474 29.6964 5.32314 31.6861 5.32083C41.642 5.7589 41.6391 20.8466 31.686 21.2831C29.6963 21.2807 27.7888 20.4391 26.3819 18.9429C24.975 17.4466 24.1836 15.4179 24.1815 13.3019ZM31.6861 23.0566C32.2456 23.0544 32.8039 22.9977 33.3537 22.8872V23.9434C33.3537 24.4138 33.178 24.8649 32.8653 25.1975C32.5525 25.5302 32.1283 25.717 31.6861 25.717C31.2438 25.717 30.8196 25.5302 30.5068 25.1975C30.1941 24.8649 30.0184 24.4138 30.0184 23.9434V22.8872C30.5682 22.9977 31.1265 23.0544 31.6861 23.0566ZM28.8782 25.8338C29.1811 26.3331 29.5968 26.7437 30.0874 27.0282C30.5779 27.3127 31.1277 27.462 31.6864 27.4624C32.2452 27.4628 32.7951 27.3144 33.286 27.0306C33.7769 26.7468 34.1932 26.3368 34.4968 25.8379C36.1836 26.1075 37.7622 26.886 39.0455 28.0811C38.3852 29.3967 37.424 30.5142 36.2505 31.3306C35.077 32.1469 33.729 32.6358 32.3311 32.7521C30.9331 32.8684 29.5301 32.6083 28.2515 31.996C26.9729 31.3836 25.8599 30.4386 25.0153 29.2482C25.0456 28.6863 25.0135 28.1226 24.9198 27.5688C26.0859 26.6547 27.4451 26.059 28.8782 25.8338ZM5.00306 33.6981V28.3774C5.00363 27.9072 5.17952 27.4564 5.49215 27.124C5.80478 26.7915 6.22863 26.6044 6.67075 26.6038H11.822C12.0085 26.604 12.1896 26.5376 12.3363 26.4152C12.4831 26.2929 12.587 26.1218 12.6314 25.9292C12.8347 25.0124 13.3256 24.1965 14.0232 23.6161C14.7208 23.0357 15.5836 22.7253 16.4692 22.7362C15.8216 23.5057 14.646 26.4134 16.3112 26.6038L21.6799 26.6038C22.1221 26.6044 22.5459 26.7915 22.8585 27.124C23.1712 27.4564 23.347 27.9072 23.3476 28.3774V33.6981C23.347 34.1683 23.1712 34.6191 22.8585 34.9516C22.5459 35.2841 22.1221 35.4711 21.6799 35.4717H6.67075C6.22863 35.4711 5.80478 35.2841 5.49215 34.9516C5.17952 34.6191 5.00363 34.1683 5.00306 33.6981ZM21.6799 37.2453C22.5643 37.2444 23.4121 36.8703 24.0374 36.2053C24.6627 35.5403 25.0144 34.6386 25.0153 33.6981V31.8627C26.1132 32.8948 27.4098 33.6593 28.8145 34.1029C30.2192 34.5466 31.698 34.6585 33.1476 34.431C34.5973 34.2035 35.9826 33.6419 37.2069 32.7857C38.4312 31.9294 39.4649 30.7991 40.2356 29.4738C41.174 30.8229 41.6841 32.4548 41.6922 34.1329V39.9057H21.6799V37.2453ZM46.6952 45.2264H3.33537C2.89637 45.2211 2.47705 45.0319 2.16838 44.6998C1.85972 44.3678 1.68661 43.9197 1.68662 43.4528C1.68663 42.9859 1.85975 42.5378 2.16843 42.2058C2.4771 41.8738 2.89643 41.6846 3.33543 41.6793H46.6952C47.1341 41.6848 47.5533 41.8741 47.8618 42.2061C48.1703 42.5381 48.3433 42.9861 48.3433 43.4528C48.3433 43.9196 48.1703 44.3676 47.8618 44.6996C47.5533 45.0316 47.1341 45.2209 46.6952 45.2264Z" fill="#C400E0"/>
</svg>
