<svg width="49" height="48" viewBox="0 0 49 48" fill="none" xmlns="http://www.w3.org/2000/svg">
<path d="M18.0758 32.2559C18.0542 32.1376 18.0018 32.0268 17.9238 31.934L14.0019 23.6261C13.9444 23.5043 13.8525 23.4011 13.7371 23.3288C13.6216 23.2565 13.4875 23.2181 13.3505 23.2181C13.2135 23.2181 13.0794 23.2565 12.964 23.3288C12.8486 23.4011 12.7567 23.5043 12.6991 23.6261L8.77734 31.934C8.69933 32.0268 8.647 32.1376 8.62536 32.2559L7.16953 35.3399C7.09099 35.5091 7.08392 35.7018 7.14984 35.876C7.21577 36.0502 7.34934 36.1918 7.5214 36.2698C7.69346 36.3479 7.89002 36.356 8.06819 36.2925C8.24635 36.229 8.39164 36.0989 8.47233 35.9308L9.81561 33.0851H16.8855L18.2288 35.9308C18.3095 36.0989 18.4548 36.229 18.633 36.2925C18.8111 36.356 19.0077 36.3479 19.1798 36.2698C19.3518 36.1918 19.4854 36.0502 19.5513 35.876C19.6172 35.7018 19.6102 35.5091 19.5316 35.3399L18.0758 32.2559ZM10.4799 31.6781L13.3506 25.597L16.2213 31.6781H10.4799ZM30.5432 8.42158H32.0122C32.2026 8.42158 32.3852 8.34746 32.5198 8.21553C32.6544 8.08359 32.73 7.90465 32.73 7.71807C32.73 7.53149 32.6544 7.35255 32.5198 7.22061C32.3852 7.08868 32.2026 7.01456 32.0122 7.01456H27.6389C27.4485 7.01456 27.266 7.08868 27.1314 7.22061C26.9967 7.35255 26.9211 7.53149 26.9211 7.71807C26.9211 7.90465 26.9967 8.08359 27.1314 8.21553C27.266 8.34746 27.4485 8.42158 27.6389 8.42158H29.1076V11.5933H25.4657C25.7552 11.1405 25.9156 10.62 25.9303 10.0858C25.945 9.5517 25.8134 9.02345 25.5492 8.55604C25.2851 8.08863 24.898 7.69912 24.4282 7.42803C23.9584 7.15694 23.423 7.01417 22.8779 7.01456H19.7868C19.5964 7.01456 19.4138 7.08868 19.2792 7.22061C19.1446 7.35255 19.069 7.53149 19.069 7.71807C19.069 7.90465 19.1446 8.08359 19.2792 8.21553C19.4138 8.34746 19.5964 8.42158 19.7868 8.42158H22.8779C23.307 8.42158 23.7185 8.58866 24.022 8.88607C24.3254 9.18347 24.4959 9.58684 24.4959 10.0074C24.4959 10.428 24.3254 10.8314 24.022 11.1288C23.7185 11.4262 23.307 11.5933 22.8779 11.5933H19.7868C19.5964 11.5933 19.4138 11.6674 19.2792 11.7993C19.1446 11.9313 19.069 12.1102 19.069 12.2968C19.069 12.4834 19.1446 12.6623 19.2792 12.7943C19.4138 12.9262 19.5964 13.0003 19.7868 13.0003H22.8259C23.7271 13.0003 24.4783 13.6948 24.5009 14.5485C24.5067 14.7609 24.4689 14.9722 24.39 15.17C24.3111 15.3679 24.1925 15.5482 24.0413 15.7004C23.8901 15.8526 23.7093 15.9736 23.5096 16.0562C23.3099 16.1388 23.0954 16.1814 22.8786 16.1814C22.8563 16.1814 22.834 16.1824 22.8117 16.1845C22.0254 16.2568 21.2326 16.1548 20.4921 15.8859C19.7516 15.6171 19.0822 15.1884 18.5337 14.6315C18.4685 14.564 18.3903 14.5099 18.3036 14.4722C18.2169 14.4345 18.1234 14.4141 18.0286 14.412C17.9338 14.4099 17.8395 14.4263 17.7512 14.4602C17.6628 14.494 17.5822 14.5447 17.514 14.6093C17.4458 14.6739 17.3913 14.7511 17.3537 14.8364C17.3161 14.9217 17.2961 15.0135 17.2949 15.1065C17.2937 15.1994 17.3114 15.2917 17.3468 15.3779C17.3822 15.4642 17.4347 15.5427 17.5012 15.6089C18.1267 16.2441 18.8766 16.749 19.7059 17.0934C20.5351 17.4379 21.4268 17.6147 22.3275 17.6135C22.5232 17.6135 22.7188 17.6051 22.9133 17.5882C23.3187 17.5837 23.7192 17.5002 24.0914 17.3426C24.4637 17.185 24.8002 16.9565 25.0815 16.6702C25.3627 16.384 25.5831 16.0458 25.7298 15.6753C25.8765 15.3048 25.9465 14.9094 25.9359 14.5121C25.9211 13.9745 25.7553 13.4514 25.4567 13.0003H29.1077V16.8754C29.1077 17.062 29.1834 17.241 29.318 17.3729C29.4526 17.5048 29.6351 17.5789 29.8255 17.5789C30.0159 17.5789 30.1984 17.5048 30.333 17.3729C30.4677 17.241 30.5433 17.062 30.5433 16.8754L30.5432 8.42158ZM38.5156 24.2787C36.4286 24.2771 34.3889 24.8874 32.6586 26.031V24.87C34.5679 23.6379 36.134 21.9591 37.2154 19.9851C38.2967 18.0111 38.8594 15.8042 38.8525 13.5637C38.8525 6.08461 32.6449 0 25.0148 0C17.3847 0 11.1772 6.08461 11.1772 13.5637C11.175 15.0071 11.4089 16.4415 11.87 17.8123C5.20274 18.5366 5.96946e-05 24.0919 5.96946e-05 30.8167C-0.00654562 32.9759 0.535115 35.1029 1.57623 37.0058C2.61734 38.9088 4.12518 40.5279 5.96387 41.7173V47.2961C5.96386 47.4204 5.99746 47.5425 6.06126 47.6499C6.12506 47.7574 6.21677 47.8464 6.32706 47.9078C6.43735 47.9692 6.56227 48.0009 6.68911 47.9996C6.81595 47.9983 6.94018 47.9641 7.04914 47.9004L13.9137 43.8902C15.8361 43.8103 17.7182 43.3242 19.4311 42.465C21.144 41.6059 22.6472 40.394 23.8378 38.9125C25.0284 37.431 25.8783 35.7147 26.3292 33.8813C26.7801 32.0479 26.8215 30.1406 26.4504 28.2901L29.1755 29.8816C28.3784 31.4128 27.9857 33.1154 28.0335 34.8337C28.0814 36.552 28.5681 38.2311 29.4492 39.7173C30.3303 41.2035 31.5777 42.4494 33.0771 43.341C34.5766 44.2326 36.2802 44.7413 38.0321 44.8206L43.3036 47.9008C43.4126 47.9644 43.5368 47.9987 43.6636 48C43.7904 48.0013 43.9154 47.9696 44.0256 47.9082C44.1359 47.8468 44.2276 47.7578 44.2914 47.6504C44.3553 47.5429 44.3889 47.4208 44.3889 47.2965V43.0682C46.248 41.8359 47.6545 40.0514 48.4018 37.9771C49.149 35.9029 49.1975 33.6483 48.5401 31.5451C47.8826 29.4418 46.554 27.6008 44.7495 26.2928C42.945 24.9848 40.7599 24.2788 38.5156 24.2786V24.2787ZM21.8849 38.9659C19.7271 41.1467 16.7833 42.4119 13.6849 42.49C13.5622 42.4934 13.4425 42.5274 13.3371 42.589L7.39941 46.0578V41.3334C7.39942 41.2139 7.36837 41.0963 7.30918 40.9919C7.24998 40.8874 7.16461 40.7994 7.0611 40.7362C4.96598 39.4603 3.32649 37.5786 2.36882 35.3506C1.41115 33.1227 1.18251 30.6583 1.71444 28.2976C2.24638 25.9369 3.51266 23.7961 5.33859 22.1707C7.16452 20.5453 9.4601 19.5153 11.9086 19.2229C14.3571 18.9305 16.8379 19.3901 19.0086 20.5382C21.1793 21.6863 22.933 23.4664 24.0277 25.6328C25.1225 27.7993 25.5042 30.2454 25.1204 32.6335C24.7366 35.0217 23.6061 37.2342 21.8849 38.9659V38.9659ZM25.8909 26.3253C24.9493 23.8092 23.2434 21.6365 21.0031 20.0999C18.7628 18.5633 16.0958 17.7367 13.3615 17.7315C12.8638 16.3961 12.6103 14.9852 12.6127 13.5636C12.6127 6.86035 18.1763 1.40693 25.0148 1.40693C31.8534 1.40693 37.4169 6.86035 37.4169 13.5636C37.423 15.6317 36.8879 17.6668 35.8628 19.4745C34.8376 21.2821 33.3566 22.8019 31.5614 23.8887C31.4579 23.9519 31.3725 24.0398 31.3133 24.1443C31.2541 24.2488 31.2231 24.3663 31.2231 24.4858V29.4395L30.5123 29.0243L30.5109 29.0234L30.5092 29.0224L25.8909 26.3253ZM43.2917 42.089C43.1882 42.1521 43.1028 42.2401 43.0436 42.3446C42.9844 42.4491 42.9533 42.5667 42.9533 42.6862V46.0581L38.6094 43.5199C38.504 43.4583 38.3843 43.4242 38.2616 43.4209C36.7427 43.379 35.2591 42.963 33.9475 42.2112C32.6358 41.4593 31.5384 40.396 30.7564 39.119C29.9745 37.8421 29.5331 36.3928 29.473 34.9047C29.4129 33.4166 29.736 31.9376 30.4126 30.6041L31.5734 31.2821C31.6824 31.3457 31.8066 31.3799 31.9334 31.3812C32.0602 31.3825 32.1852 31.3508 32.2954 31.2894C32.4057 31.228 32.4974 31.139 32.5612 31.0316C32.625 30.9241 32.6586 30.802 32.6586 30.6777V27.7958C33.6073 27.0061 34.7121 26.4168 35.9038 26.0646C37.0954 25.7125 38.3484 25.6051 39.5844 25.7491C40.8203 25.8932 42.0127 26.2856 43.0869 26.9019C44.161 27.5182 45.0939 28.345 45.8273 29.3307C46.5606 30.3165 47.0785 31.4399 47.3487 32.6307C47.6189 33.8216 47.6355 35.0543 47.3976 36.2517C47.1596 37.4491 46.6721 38.5856 45.9657 39.5899C45.2592 40.5943 44.3489 41.4451 43.2917 42.089V42.089ZM42.9547 30.7105H41.4629C41.4073 30.704 41.3511 30.704 41.2955 30.7105H39.2331V29.5284C39.2331 29.3418 39.1575 29.1629 39.0229 29.0309C38.8882 28.899 38.7057 28.8249 38.5153 28.8249C38.3249 28.8249 38.1424 28.899 38.0078 29.0309C37.8732 29.1629 37.7975 29.3418 37.7975 29.5284V30.7105H34.5532C34.3629 30.7105 34.1803 30.7846 34.0457 30.9165C33.9111 31.0485 33.8355 31.2274 33.8355 31.414C33.8355 31.6006 33.9111 31.7795 34.0457 31.9114C34.1803 32.0434 34.3629 32.1175 34.5532 32.1175H40.2823C39.668 33.3486 38.8219 34.4548 37.7885 35.378C37.3164 34.9049 36.9007 34.3806 36.5495 33.8153C36.4499 33.6571 36.2906 33.544 36.1062 33.5006C35.9219 33.4571 35.7275 33.487 35.5655 33.5836C35.4035 33.6802 35.2871 33.8357 35.2417 34.0162C35.1963 34.1966 35.2256 34.3873 35.3232 34.5467C35.7043 35.1612 36.1511 35.7342 36.6561 36.256C35.988 36.7036 35.271 37.0768 34.5184 37.3685C34.4301 37.4021 34.3495 37.4524 34.2812 37.5167C34.2128 37.5809 34.1581 37.6578 34.1202 37.7428C34.0823 37.8279 34.062 37.9194 34.0604 38.0122C34.0587 38.105 34.0758 38.1972 34.1107 38.2835C34.1456 38.3698 34.1976 38.4484 34.2636 38.515C34.3296 38.5815 34.4084 38.6345 34.4955 38.6711C34.5825 38.7076 34.6761 38.7269 34.7707 38.7278C34.8654 38.7288 34.9594 38.7113 35.0471 38.6766C36.0034 38.3055 36.9083 37.8182 37.7406 37.2261C38.8045 38.0518 40.0245 38.663 41.3304 39.0247C41.5132 39.0745 41.7086 39.0515 41.8741 38.9606C42.0395 38.8696 42.1615 38.7182 42.2134 38.5393C42.2653 38.3605 42.2428 38.1688 42.1509 38.0061C42.059 37.8435 41.9052 37.7231 41.723 37.6713C40.6993 37.3879 39.736 36.9263 38.8792 36.3085C40.1597 35.1296 41.1757 33.7023 41.8626 32.1175H42.9547C43.145 32.1175 43.3276 32.0434 43.4622 31.9114C43.5968 31.7795 43.6724 31.6006 43.6724 31.414C43.6724 31.2274 43.5968 31.0485 43.4622 30.9165C43.3276 30.7846 43.145 30.7105 42.9547 30.7105V30.7105Z" fill="url(#paint0_linear_10_77)"/>
<defs>
<linearGradient id="paint0_linear_10_77" x1="24.5" y1="0" x2="24.5" y2="48" gradientUnits="userSpaceOnUse">
<stop stop-color="#E73434"/>
<stop offset="1" stop-color="#EBB700" stop-opacity="0.56"/>
</linearGradient>
</defs>
</svg>
