<svg width="49" height="47" viewBox="0 0 49 47" fill="none" xmlns="http://www.w3.org/2000/svg">
<path d="M24.5 0H24.4411C10.9308 0.0338942 0 10.5411 0 23.5C0 36.4589 10.9308 46.9661 24.4411 47H24.5C38.0339 47 49 36.4815 49 23.5C49 10.5185 38.0339 0 24.5 0ZM25.4776 14.0661C28.0808 13.9983 30.6014 13.6707 33.0397 13.1058C33.7699 15.8738 34.2293 19.0712 34.3 22.5736H25.4776V14.0661ZM25.4776 12.1793V2.03365C28.1161 2.73413 30.8017 6.11226 32.4978 11.2981C30.2363 11.8178 27.8923 12.1115 25.4776 12.1793ZM23.5224 2.01106V12.1906C21.0841 12.1228 18.7166 11.8178 16.4433 11.2868C18.163 6.06707 20.8603 2.66635 23.5224 2.01106ZM23.5224 14.0661V22.5623H14.6411C14.7118 19.0599 15.1712 15.8625 15.9014 13.0945C18.3514 13.6594 20.9075 13.9983 23.5224 14.0661ZM12.6623 22.5623H1.99063C2.20264 17.7267 4.08726 13.2978 7.09086 9.79543C9.26995 10.9478 11.5904 11.8969 14.0168 12.5974C13.2159 15.5913 12.7447 18.9695 12.6623 22.5623ZM12.6623 24.4377C12.7329 28.0192 13.2041 31.4087 14.005 34.4026C11.5786 35.1144 9.26995 36.0522 7.07909 37.2046C4.07548 33.7022 2.20264 29.2733 1.97885 24.4377H12.6623ZM14.6411 24.4377H23.5224V32.9226C20.9075 32.9904 18.3514 33.3293 15.9014 33.9055C15.1712 31.1375 14.7118 27.9401 14.6411 24.4377ZM23.5224 34.8094V45.0002C20.8603 44.3337 18.163 40.9442 16.4433 35.7245C18.7166 35.1822 21.0841 34.8772 23.5224 34.8094ZM25.4776 44.9663V34.7981C27.8923 34.8659 30.2363 35.1709 32.5096 35.6906C30.8017 40.8877 28.1279 44.2659 25.4776 44.9663ZM25.4776 32.9226V24.4377H34.3C34.2293 27.9288 33.7699 31.1262 33.0397 33.8942C30.6014 33.3293 28.0808 32.9904 25.4776 32.9226ZM36.2671 24.4377H47.0094C46.7974 29.2733 44.9127 33.6909 41.9091 37.2046C39.7065 36.0409 37.3743 35.0918 34.9243 34.38C35.7252 31.3861 36.1964 28.0192 36.2671 24.4377ZM36.2671 22.5623C36.1964 18.9808 35.7252 15.6026 34.9361 12.6087C37.3861 11.8969 39.7183 10.9478 41.9091 9.79543C44.9127 13.2978 46.7974 17.7267 47.0094 22.5736H36.2671V22.5623ZM40.5663 8.34928C38.6111 9.34351 36.5615 10.1683 34.406 10.7897C33.2635 7.25337 31.6498 4.37236 29.7534 2.47428C33.9231 3.43462 37.6452 5.51346 40.5663 8.34928ZM19.176 2.49687C17.2796 4.38365 15.6776 7.26466 14.5469 10.7784C12.4149 10.157 10.3772 9.34351 8.44543 8.34928C11.3312 5.52476 15.0298 3.45721 19.176 2.49687ZM8.43365 38.6394C10.3654 37.6452 12.4149 36.8317 14.5351 36.2103C15.6776 39.7353 17.2796 42.6051 19.176 44.5031C15.0298 43.5428 11.3312 41.4752 8.43365 38.6394ZM29.7534 44.5257C31.6615 42.6276 33.2635 39.7466 34.4178 36.199C36.5733 36.8204 38.6228 37.6452 40.5781 38.6394C37.657 41.4865 33.9231 43.5654 29.7534 44.5257Z" fill="#008ACC"/>
</svg>
