<svg width="51" height="48" viewBox="0 0 51 48" fill="none" xmlns="http://www.w3.org/2000/svg">
<path d="M44.926 0.437134H21.5141C20.4057 0.438376 19.3431 0.851003 18.5593 1.5845C17.7756 2.31801 17.3347 3.31249 17.3334 4.34982V23.9132H13.9888C13.1018 23.9132 12.2511 24.243 11.6238 24.83C10.9966 25.417 10.6442 26.2132 10.6442 27.0434C10.6488 27.3697 10.7087 27.6932 10.8215 28.002C10.7663 27.9957 10.7136 27.9762 10.6543 27.973C10.352 27.9597 10.0505 28.0117 9.77319 28.1252C9.49591 28.2387 9.25034 28.4105 9.05557 28.6272C8.84708 28.8648 8.70072 29.1446 8.62814 29.4444C8.55556 29.7443 8.55876 30.0558 8.6375 30.3543L9.18851 32.6119C7.4286 30.7816 6.22996 28.5402 5.71937 26.1247L5.33976 24.3248C5.23379 23.797 4.94409 23.3168 4.51589 22.9592C4.08768 22.6017 3.54505 22.3868 2.97265 22.3482C2.64185 22.3333 2.31166 22.3875 2.00596 22.5067C1.70026 22.6259 1.4267 22.8073 1.20505 23.0376C0.968388 23.2899 0.795087 23.5887 0.69786 23.9119C0.600632 24.2351 0.581944 24.5746 0.643166 24.9055L1.23348 28.3932C2.01674 32.9653 4.38725 37.1686 7.97862 40.3535V41.129H7.29968C7.07792 41.129 6.86524 41.2115 6.70844 41.3582C6.55163 41.505 6.46354 41.704 6.46354 41.9116V46.6068C6.46354 46.8143 6.55163 47.0134 6.70844 47.1601C6.86524 47.3069 7.07792 47.3893 7.29968 47.3893H17.3334C17.5551 47.3893 17.7678 47.3069 17.9246 47.1601C18.0814 47.0134 18.1695 46.8143 18.1695 46.6068V41.9116C18.1695 41.704 18.0814 41.505 17.9246 41.3582C17.7678 41.2115 17.5551 41.129 17.3334 41.129H17.3141L17.2347 38.0552V38.0427C17.1685 36.7676 16.8234 35.5188 16.2206 34.3735C15.6178 33.2283 14.7703 32.2111 13.7304 31.3849L12.993 30.0154C13.3142 30.1159 13.6501 30.1692 13.9888 30.1735H36.5646C37.2745 30.1693 37.9712 29.9935 38.5872 29.6633L37.6599 31.3849C36.6201 32.2111 35.7725 33.2283 35.1697 34.3735C34.567 35.5188 34.2218 36.7676 34.1557 38.0427V38.0552L34.0754 41.129H34.0562C33.8344 41.129 33.6217 41.2115 33.4649 41.3582C33.3081 41.505 33.22 41.704 33.22 41.9116V46.6068C33.22 46.8143 33.3081 47.0134 33.4649 47.1601C33.6217 47.3069 33.8344 47.3893 34.0562 47.3893H44.0898C44.3116 47.3893 44.5243 47.3069 44.6811 47.1601C44.8379 47.0134 44.926 46.8143 44.926 46.6068V41.9116C44.926 41.704 44.8379 41.505 44.6811 41.3582C44.5243 41.2115 44.3116 41.129 44.0898 41.129H43.4109V40.3559C47.0023 37.171 49.3728 32.9676 50.156 28.3956L50.7463 24.9078C50.8076 24.577 50.7889 24.2375 50.6916 23.9143C50.5944 23.591 50.4211 23.2923 50.1845 23.0399C49.9629 22.8093 49.6895 22.6276 49.3838 22.508C49.0781 22.3884 48.7478 22.3338 48.4169 22.3482C47.8445 22.3863 47.3018 22.6007 46.8733 22.9579C46.4448 23.315 46.1546 23.7948 46.0481 24.3225L45.6685 26.1223C45.1579 28.5378 43.9592 30.7792 42.1993 32.6096L42.7503 30.3519C42.8291 30.0535 42.8323 29.7419 42.7597 29.4421C42.6871 29.1423 42.5408 28.8624 42.3323 28.6249C42.1393 28.4063 41.8941 28.2333 41.6166 28.1196C41.3391 28.006 41.0369 27.955 40.7344 27.9707C40.5729 27.9812 40.4132 28.0093 40.2586 28.0544C40.5738 27.5023 40.7408 26.8868 40.7453 26.2608V6.69742H49.9428C50.1646 6.69742 50.3772 6.61498 50.534 6.46823C50.6909 6.32147 50.779 6.12243 50.779 5.91489C50.777 4.46267 50.1597 3.07046 49.0625 2.04359C47.9652 1.01671 46.4777 0.438997 44.926 0.437134ZM16.4972 45.8242H8.13581V42.6941H16.4972V45.8242ZM15.5624 38.0998L15.641 41.129H9.6509V40.0147C9.6507 39.9061 9.62636 39.7988 9.57943 39.6995C9.53251 39.6002 9.46402 39.5111 9.37832 39.438C5.91707 36.4675 3.62899 32.4902 2.88486 28.1507L2.29454 24.6629C2.27355 24.5614 2.27667 24.4569 2.30369 24.3567C2.33071 24.2564 2.38097 24.163 2.4509 24.083C2.50434 24.0226 2.57292 23.9755 2.65053 23.9459C2.72814 23.9162 2.81237 23.905 2.89573 23.9132C3.09448 23.9342 3.28053 24.0151 3.42568 24.1439C3.57083 24.2727 3.66716 24.4423 3.70009 24.6269L4.0797 26.4267C4.5017 28.4344 5.3541 30.3412 6.5854 32.0319C7.81671 33.7227 9.40139 35.1624 11.2437 36.264C11.3986 36.3564 11.5817 36.3984 11.7647 36.3837C11.9477 36.369 12.1204 36.2983 12.2561 36.1825C12.3919 36.0668 12.4832 35.9124 12.5158 35.7433C12.5485 35.5741 12.5208 35.3996 12.4369 35.2467L10.8115 32.241L10.2663 30.0061C10.2468 29.9425 10.2432 29.8757 10.2558 29.8107C10.2685 29.7457 10.2969 29.6843 10.339 29.6312C10.3689 29.5997 10.406 29.5749 10.4476 29.5586C10.4891 29.5423 10.534 29.5351 10.579 29.5373C10.6741 29.5479 10.7648 29.5811 10.8422 29.6339C10.9197 29.6866 10.9813 29.7571 11.0213 29.8386L12.3165 32.2363C12.3699 32.3353 12.4451 32.4225 12.5373 32.4922C13.4326 33.1768 14.1644 34.0297 14.6855 34.9956C15.2066 35.9616 15.5053 37.0191 15.5624 38.0998ZM34.8396 28.6084H13.9888C13.5453 28.6084 13.1199 28.4436 12.8063 28.15C12.4927 27.8565 12.3165 27.4585 12.3165 27.0434C12.3165 26.6283 12.4927 26.2302 12.8063 25.9367C13.1199 25.6432 13.5453 25.4783 13.9888 25.4783H34.8396C34.5991 25.9694 34.4746 26.5032 34.4746 27.0434C34.4746 27.5836 34.5991 28.1174 34.8396 28.6084ZM43.2537 45.8242H34.8923V42.6941H43.2537V45.8242ZM40.3665 29.8386C40.4064 29.757 40.468 29.6865 40.5455 29.6337C40.623 29.5809 40.7136 29.5477 40.8088 29.5373C40.8539 29.5331 40.8993 29.5395 40.9411 29.5559C40.9828 29.5723 41.0196 29.5982 41.048 29.6312C41.0901 29.6843 41.1185 29.7457 41.1311 29.8107C41.1438 29.8757 41.1402 29.9425 41.1207 30.0061L40.578 32.241L38.9551 35.2514C38.8712 35.4043 38.8435 35.5788 38.8762 35.748C38.9088 35.9171 39.0001 36.0715 39.1359 36.1872C39.2716 36.303 39.4444 36.3737 39.6273 36.3884C39.8103 36.4031 39.9934 36.3611 40.1483 36.2687C41.9906 35.167 43.5753 33.7274 44.8066 32.0366C46.0379 30.3459 46.8903 28.4391 47.3123 26.4314L47.6919 24.6316C47.7237 24.4465 47.8193 24.2761 47.964 24.1464C48.1087 24.0168 48.2948 23.9349 48.4938 23.9132C48.5769 23.907 48.6604 23.9191 48.7376 23.9484C48.8148 23.9778 48.8837 24.0236 48.9386 24.0823C49.0085 24.1622 49.0588 24.2557 49.0858 24.3559C49.1128 24.4561 49.116 24.5606 49.095 24.6621L48.5047 28.1499C47.7605 32.4895 45.4724 36.4667 42.0112 39.4372C41.9255 39.5104 41.857 39.5994 41.8101 39.6987C41.7631 39.798 41.7388 39.9053 41.7386 40.0139V41.129H35.7485L35.8271 38.0998C35.8843 37.019 36.1831 35.9615 36.7044 34.9955C37.2256 34.0296 37.9576 33.1768 38.8531 32.4922C38.9452 32.4227 39.0202 32.3354 39.073 32.2363L40.3665 29.8386ZM39.073 5.91489V26.2608C39.0711 26.8342 38.8447 27.3871 38.4365 27.8147C38.0283 28.2423 37.4667 28.515 36.8581 28.5811C36.6166 28.3671 36.4282 28.1063 36.3059 27.8169C36.1837 27.5275 36.1306 27.2166 36.1505 26.906C36.1703 26.5954 36.2626 26.2926 36.4208 26.0189C36.579 25.7452 36.7993 25.5073 37.0663 25.3218C37.2066 25.2232 37.3104 25.0859 37.3627 24.9291C37.415 24.7723 37.4133 24.6041 37.3578 24.4483C37.3023 24.2925 37.1958 24.157 37.0535 24.0609C36.9111 23.9649 36.7401 23.9132 36.5646 23.9132H19.0056V4.34982C19.0056 3.72719 19.2699 3.13007 19.7403 2.68981C20.2108 2.24954 20.8488 2.00221 21.5141 2.00221H40.8381C40.2794 2.51085 39.8353 3.11918 39.5321 3.79123C39.2289 4.46328 39.0728 5.1854 39.073 5.91489ZM40.8289 5.13235C41.0208 4.24786 41.5335 3.45266 42.2802 2.88148C43.0269 2.31031 43.9616 1.99828 44.926 1.99828C45.8903 1.99828 46.8251 2.31031 47.5717 2.88148C48.3184 3.45266 48.8312 4.24786 49.0231 5.13235H40.8289Z" fill="#D60000"/>
<path d="M34.8531 11.1696H33.2603V18.9949H31.6674V12.7346H30.0746V18.9949H28.4818V14.2997H26.889V18.9949H25.2962V15.8648H23.7034V18.9949H22.1106V20.56H23.7034H25.2962H26.889H28.4818H30.0746H31.6674H33.2603H34.8531H36.4459V18.9949H34.8531V11.1696Z" fill="#D60000"/>
<path d="M28.5404 11.3769L30.4429 12.6183C30.6098 12.7272 30.8117 12.7724 31.0105 12.7454C31.2092 12.7185 31.3909 12.6213 31.5214 12.4721L36.4459 6.84779L35.2 5.80328L30.7482 10.8868L28.8917 9.6744C28.7338 9.57133 28.5443 9.52501 28.3554 9.54332C28.1666 9.56163 27.99 9.64344 27.8559 9.77483L22.1106 15.3991L23.2711 16.5352L28.5404 11.3769Z" fill="#D60000"/>
</svg>
