<svg width="50" height="48" viewBox="0 0 50 48" fill="none" xmlns="http://www.w3.org/2000/svg">
<path d="M28.4117 41.0594H26.1829L24.3337 36.9411C24.2687 36.7966 24.1661 36.6745 24.0378 36.589C23.9096 36.5036 23.7609 36.4583 23.6092 36.4585H5.60308C5.45202 36.4591 5.30419 36.5047 5.1767 36.5901C5.0492 36.6755 4.94724 36.7972 4.88258 36.9411L3.0333 41.0594H0.800554C0.588234 41.0594 0.38461 41.1483 0.234477 41.3065C0.0843439 41.4648 0 41.6794 0 41.9031V47.1563C0 47.38 0.0843439 47.5946 0.234477 47.7529C0.38461 47.9111 0.588234 48 0.800554 48H28.4117C28.624 48 28.8276 47.9111 28.9778 47.7529C29.1279 47.5946 29.2122 47.38 29.2122 47.1563V41.9031C29.2122 41.7923 29.1915 41.6826 29.1513 41.5803C29.1111 41.4779 29.0521 41.3849 28.9778 41.3065C28.9034 41.2282 28.8152 41.166 28.718 41.1236C28.6209 41.0812 28.5168 41.0594 28.4117 41.0594ZM6.10983 38.146H23.1024L24.4105 41.0594H4.80173L6.10983 38.146ZM27.6111 46.3125H1.60111V42.7469H27.6111V46.3125ZM47.8395 22.6186L31.1448 14.8807L32.8331 10.8392L34.5864 6.63652C34.6288 6.53508 34.6519 6.42583 34.6543 6.31499C34.6567 6.20414 34.6383 6.09389 34.6003 5.99054C34.5622 5.88718 34.5052 5.79275 34.4325 5.71263C34.3597 5.63252 34.2728 5.56829 34.1765 5.52362L22.4219 0.0713776C22.3257 0.0267716 22.222 0.00258393 22.1169 0.000195951C22.0118 -0.00219203 21.9073 0.0172663 21.8093 0.0574599C21.7113 0.0976535 21.6218 0.157795 21.5459 0.23445C21.47 0.311105 21.4091 0.402772 21.3668 0.504216L19.6144 4.70604L13.3252 19.7769L11.5688 23.9787C11.5265 24.0802 11.5035 24.1894 11.5013 24.3002C11.499 24.411 11.5175 24.5212 11.5556 24.6244C11.5937 24.7277 11.6508 24.822 11.7235 24.902C11.7963 24.9821 11.8832 25.0462 11.9795 25.0908L23.7372 30.5388C23.9315 30.629 24.1518 30.6341 24.3497 30.5531C24.5475 30.4721 24.7068 30.3115 24.7924 30.1068L26.5456 25.9042L28.2348 21.8542L44.9279 29.5955C45.3626 29.797 45.8307 29.9063 46.3055 29.9171C46.7803 29.9279 47.2525 29.8401 47.695 29.6586C48.1376 29.4771 48.5419 29.2055 48.8849 28.8593C49.2279 28.5131 49.5028 28.0992 49.694 27.641C49.8852 27.1828 49.9889 26.6895 49.9992 26.1891C50.0094 25.6887 49.9261 25.191 49.7539 24.7246C49.5817 24.2581 49.324 23.832 48.9955 23.4705C48.6671 23.109 48.2743 22.8201 47.8395 22.6186ZM22.51 1.95545L32.7995 6.72426L31.6908 9.38204L21.4012 4.61323L22.51 1.95545ZM23.6484 28.6547L13.3597 23.8859L14.4676 21.229L24.7571 25.9978L23.6484 28.6547ZM15.1121 19.6841L20.7576 6.15811L31.0463 10.9236L25.4024 24.4538L15.1121 19.6841ZM30.5011 16.4256L33.1237 17.6414L31.5026 21.5294L28.88 20.3135L30.5011 16.4256ZM48.2286 26.9622C48.0129 27.4774 47.612 27.8813 47.114 28.0853C46.6161 28.2894 46.0616 28.2769 45.5724 28.0506L32.9668 22.2077L34.5888 18.3206L47.1935 24.1635C47.6824 24.3906 48.0659 24.8127 48.2599 25.3374C48.4539 25.862 48.4427 26.4463 48.2286 26.9622Z" fill="#C1A200"/>
</svg>
